<svg xmlns="http://www.w3.org/2000/svg" xmlns:xlink="http://www.w3.org/1999/xlink" width="1920" zoomAndPan="magnify" viewBox="0 0 1440 599.999999" height="800" preserveAspectRatio="xMidYMid meet" version="1.0"><rect x="-144" width="1728" fill="#ffffff" y="-60" height="719.999999" fill-opacity="1"/><rect x="-144" width="1728" fill="#ffffff" y="-60" height="719.999999" fill-opacity="1"/><path fill="#000000" d="M 702.554688 84.414062 C 692.601562 101.285156 682.625 118.136719 672.621094 134.976562 C 665.488281 146.96875 650.269531 172.578125 638.800781 191.882812 C 627.332031 211.1875 611.527344 237.773438 603.679688 250.964844 C 595.832031 264.160156 577.828125 294.433594 563.679688 318.242188 C 542 354.707031 520.316406 391.171875 498.628906 427.636719 C 447.480469 513.613281 429.945312 543.496094 429.945312 544.6875 C 429.945312 545.398438 536.015625 545.804688 720.105469 545.804688 C 933.910156 545.804688 1010.265625 545.460938 1010.265625 544.492188 C 1010.265625 543.769531 1004.285156 533.109375 996.972656 520.800781 C 989.664062 508.492188 967.738281 471.570312 948.253906 438.75 C 927.285156 403.445312 906.308594 368.152344 885.316406 332.867188 C 871.273438 309.28125 857.238281 285.683594 843.210938 262.082031 C 835.183594 248.566406 827.167969 235.140625 825.402344 232.246094 C 823.632812 229.351562 812.828125 211.1875 801.386719 191.882812 C 789.949219 172.578125 776.046875 149.148438 770.496094 139.816406 C 760.492188 122.96875 750.511719 106.113281 740.546875 89.242188 C 729.625 70.757812 720.429688 55.640625 720.105469 55.648438 C 719.785156 55.65625 711.886719 68.601562 702.554688 84.414062 M 707.769531 136.015625 C 700.558594 148.210938 693.335938 160.398438 686.09375 172.578125 C 680.542969 181.90625 665.050781 207.96875 651.667969 230.492188 C 638.285156 253.015625 624.515625 276.089844 621.070312 281.773438 C 617.625 287.453125 614.804688 292.589844 614.804688 293.179688 C 614.804688 293.828125 656.824219 294.257812 720.105469 294.257812 C 790.269531 294.257812 825.40625 293.863281 825.40625 293.074219 C 825.40625 292.421875 822.589844 287.289062 819.144531 281.667969 C 815.699219 276.042969 800.871094 251.171875 786.191406 226.398438 C 771.511719 201.621094 754.15625 172.402344 747.621094 161.460938 C 741.085938 150.523438 732.4375 135.910156 728.402344 128.996094 C 724.363281 122.078125 720.675781 116.417969 720.207031 116.417969 C 719.734375 116.417969 714.140625 125.234375 707.769531 136.015625 M 611.296875 325.148438 C 611.296875 325.871094 617.25 336.167969 640.792969 376.15625 C 645.609375 384.335938 650.410156 392.527344 655.199219 400.726562 C 657.628906 404.910156 659.765625 408.515625 659.945312 408.738281 C 660.328125 409.210938 674.5625 401.253906 695.535156 388.847656 L 704.3125 383.65625 L 704.625 354.167969 L 704.9375 324.675781 L 658.117188 324.675781 C 632.367188 324.675781 611.296875 324.890625 611.296875 325.148438 M 735.589844 354.199219 L 735.902344 383.71875 L 757.546875 396.28125 C 769.453125 403.191406 779.472656 408.863281 779.816406 408.878906 C 780.160156 408.898438 781.269531 407.46875 782.285156 405.699219 C 783.296875 403.929688 794.203125 385.292969 806.519531 364.285156 C 818.839844 343.277344 828.917969 325.769531 828.917969 325.382812 C 828.917969 324.992188 807.847656 324.675781 782.097656 324.675781 L 735.277344 324.675781 Z M 569.097656 369.429688 C 488.632812 504.828125 483.765625 513.089844 483.765625 514.316406 C 483.765625 515.539062 684.164062 515.835938 685.386719 514.617188 C 685.808594 514.191406 685.695312 513.273438 685.132812 512.570312 C 684.570312 511.867188 679.382812 503.132812 673.613281 493.15625 C 667.839844 483.183594 655.847656 462.648438 646.964844 447.527344 C 622.40625 405.722656 620.136719 401.839844 602.523438 371.582031 C 593.511719 356.109375 585.789062 343.433594 585.355469 343.421875 C 584.921875 343.410156 577.609375 355.109375 569.097656 369.429688 M 838.335938 370.648438 C 826.722656 390.648438 815.058594 410.621094 803.339844 430.5625 C 781.652344 467.457031 775.261719 478.367188 765.996094 494.328125 C 762.445312 500.441406 758.332031 507.359375 756.855469 509.699219 C 755.378906 512.042969 754.492188 514.28125 754.882812 514.671875 C 756.226562 516.019531 956.445312 515.488281 956.445312 514.136719 C 956.445312 513.453125 947.15625 497.261719 935.800781 478.160156 C 923.824219 458.011719 911.863281 437.855469 899.910156 417.691406 C 868.964844 365.453125 855.570312 343.398438 854.832031 343.445312 C 854.414062 343.476562 846.992188 355.714844 838.335938 370.648438 M 701.328125 420.449219 C 694.222656 424.667969 687.125 428.890625 680.027344 433.125 L 675.75 435.6875 L 687.363281 455.355469 C 694.707031 467.816406 702.003906 480.308594 709.246094 492.828125 C 714.898438 502.625 719.785156 510.648438 720.105469 510.660156 C 720.429688 510.675781 724.234375 504.503906 728.5625 496.949219 C 732.894531 489.394531 742.71875 472.578125 750.398438 459.578125 C 760.484375 442.507812 763.984375 435.632812 763 434.828125 C 759.695312 432.125 720.988281 410.097656 719.742188 410.210938 C 718.976562 410.28125 710.691406 414.886719 701.328125 420.449219 " fill-opacity="1" fill-rule="evenodd"/></svg>